<?xml version="1.0" encoding="UTF-8"?>
<svg id="Layer_1" xmlns="http://www.w3.org/2000/svg" viewBox="0 0 551.14 551.08">
    <defs>
        <style>
            .cls-1 {
            fill: #121214;
            }

            .cls-2 {
            fill: #0a54e8;
            }
        </style>
    </defs>
    <path class="cls-1" d="M550.92,265.59c-.11-2.39-.22-4.73-.33-7.12,0-.43-.05-.92-.11-1.41,0-.22,0-.43-.05-.65-.22-4.4-.65-8.81-1.2-13.15-.05-.27-.05-.6-.11-.87-.05-.71-.16-1.36-.27-2.07-.27-2.17-.54-4.29-.87-6.47-.71-4.67-1.58-9.35-2.5-14.02-.43-2.12-.92-4.29-1.41-6.47-.38-1.41-.71-2.88-1.03-4.35-.05-.11-.11-.22-.11-.33-.05-.33-.16-.65-.27-.98-.16-.71-.33-1.41-.54-2.12-.05-.38-.16-.76-.33-1.14-.33-1.41-.71-2.83-1.14-4.24-.38-1.36-.76-2.66-1.2-4.02-.33-1.14-.65-2.28-1.03-3.42-2.01-6.47-4.29-12.77-6.79-19.03-.65-1.74-1.36-3.42-2.07-5.11-.16-.38-.33-.76-.49-1.14-1.63-3.81-3.37-7.56-5.16-11.31-1.96-4.02-3.97-7.99-6.09-11.9-.05-.05-.05-.11-.05-.16-.43-.71-.82-1.41-1.25-2.12-6.69-12.12-14.35-23.65-22.78-34.52-8.26-10.76-17.34-20.93-27.18-30.39-.27-.27-.65-.6-.98-.92-6.63-6.31-13.59-12.34-20.87-17.99-17.23-13.43-36.09-24.84-56.26-33.92-.71-.38-1.41-.71-2.12-.98-1.25-.54-2.45-1.09-3.7-1.58-1.9-.87-3.81-1.63-5.71-2.39-2.23-.87-4.46-1.74-6.74-2.56-2.07-.76-4.19-1.52-6.36-2.23-2.55-.87-5.16-1.74-7.77-2.5-1.96-.6-3.97-1.2-5.98-1.74-.11-.05-.22-.05-.33-.11-.16-.05-.33-.11-.49-.11-1.74-.49-3.42-.98-5.16-1.41-2.01-.54-4.02-1.03-6.09-1.52-1.85-.43-3.7-.82-5.54-1.2-2.77-.6-5.49-1.14-8.21-1.63h-.11c-1.85-.33-3.75-.65-5.6-.92-1.85-.27-3.75-.54-5.65-.76-5.6-.76-11.25-1.41-16.96-1.74-3.32-.33-6.69-.49-10.06-.6h-.43c-.43-.05-.92-.05-1.36-.05l-5.22-.16c-1.09-.05-2.23-.05-3.32-.05-1.85,0-3.75,0-5.6.11-10.93.16-21.74,1.03-32.4,2.56-3.59.43-7.18,1.03-10.71,1.63-2.28.43-4.51.87-6.74,1.3-2.23.49-4.46.98-6.69,1.47-2.56.6-5.11,1.2-7.61,1.9-1.9.49-3.75.98-5.6,1.52-2.12.6-4.19,1.2-6.31,1.85-.11.05-.27.11-.43.11-4.24,1.36-8.43,2.77-12.56,4.29-2.12.76-4.19,1.58-6.31,2.39-17.88,7.12-34.9,15.98-50.77,26.53-8.43,5.54-16.58,11.69-24.3,18.26-.33.27-.65.54-.98.82-.16.11-.27.22-.43.33-.27.22-.6.43-.87.71-.16.11-.27.16-.38.27-.92.76-1.85,1.47-2.77,2.28-12.18,10.71-23.43,22.4-33.59,35.06-10.44,13.05-19.73,27.07-27.72,41.86-4.73,8.75-8.91,17.72-12.67,26.96-9.3,22.78-15.55,47.07-18.26,72.51-.27,2.34-.49,4.73-.71,7.12-.43,4.73-.71,9.51-.87,14.3-.05.43-.11.92-.05,1.41-.05.92-.11,1.9-.11,2.83v1.14c-.05,1.36-.11,2.66-.11,4.02,0,1.09,0,2.23.05,3.37-.05,1.09,0,2.17.05,3.32v1.36c.05,1.41.11,2.77.22,4.19v.38c.05,1.96.16,3.91.33,5.87.11,1.96.27,3.91.43,5.87.16,1.96.38,3.97.6,5.92.22,1.96.43,3.91.71,5.87s.54,3.91.87,5.87l.98,5.87c0,.11.05.27.11.38.43,2.61.92,5.16,1.47,7.77,0,.05,0,.16.05.27,1.58,7.99,3.59,15.82,5.98,23.48.92,3.04,1.85,6.09,2.88,9.08.11.27.16.49.27.76.05.11.11.27.11.38.54,1.52,1.09,2.99,1.63,4.51,1.74,4.84,3.64,9.62,5.71,14.35.6,1.47,1.25,2.94,1.9,4.4.92,2.07,1.9,4.08,2.83,6.09.98,2.01,1.96,4.02,2.99,5.98,2.01,3.97,4.19,7.88,6.36,11.69,4.46,7.72,9.24,15.17,14.35,22.4,1.3,1.79,2.61,3.59,3.91,5.33,1.3,1.79,2.66,3.53,4.02,5.27,1.36,1.74,2.77,3.48,4.19,5.16,1.03,1.25,2.12,2.5,3.15,3.75.82.98,1.69,2.01,2.61,2.99.98,1.09,1.9,2.17,2.88,3.26,2.07,2.28,4.13,4.46,6.31,6.69,2.61,2.66,5.27,5.27,7.94,7.88,1.47,1.36,2.99,2.77,4.46,4.13,3.32,2.94,6.63,5.82,10,8.64,1.74,1.41,3.42,2.77,5.16,4.19,3.48,2.72,7.01,5.33,10.6,7.94,15.76,11.2,32.78,20.76,50.72,28.54,2.61,1.09,5.16,2.17,7.77,3.21.33.11.6.22.92.38,2.5.98,5.06,1.9,7.61,2.77,3.97,1.47,7.99,2.77,12.01,4.02.11.05.22.05.33.11,1.79.54,3.64,1.09,5.49,1.58,1.9.54,3.86,1.09,5.82,1.58,6.58,1.69,13.26,3.15,20.06,4.4,3.42.6,6.79,1.14,10.22,1.63,3.42.49,6.9.87,10.38,1.25,4.62.43,9.24.82,13.97,1.03,2.23.11,4.46.22,6.74.27,2.23.05,4.51.11,6.79.11h.6c4.73,0,9.46-.11,14.19-.38,2.34-.11,4.67-.27,7.01-.43,2.01-.16,4.08-.33,6.14-.54,1.14-.11,2.34-.22,3.48-.38,1.58-.16,3.21-.33,4.78-.54,2.17-.27,4.4-.6,6.58-.92,2.23-.33,4.4-.71,6.52-1.09,2.83-.49,5.6-1.03,8.37-1.63,86.05-18.21,157.37-76.59,193.35-154.59,1.2-2.56,2.34-5.22,3.48-7.83,1.2-2.94,2.39-5.82,3.53-8.75.43-1.25.92-2.5,1.41-3.81,1.52-4.19,2.99-8.48,4.35-12.77.65-2.17,1.3-4.35,1.9-6.52.65-2.17,1.25-4.35,1.79-6.52,1.14-4.4,2.17-8.86,3.1-13.32,1.36-6.69,2.5-13.48,3.37-20.33.27-2.01.49-4.02.71-6.03.05-.27.05-.54.11-.82,0-.22,0-.38.05-.54.05-.43.11-.87.11-1.3.27-2.99.49-5.98.71-8.97.22-3.48.38-6.9.43-10.38.05-2.39.11-4.73.11-7.12,0-3.32-.05-6.63-.22-9.95ZM394.04,506.07c-8.81,4.57-17.94,8.64-27.34,12.12-28.38,10.71-59.09,16.58-91.16,16.58-28.81,0-56.53-4.73-82.46-13.43-8.1-2.72-15.98-5.82-23.7-9.3v-.05C79.25,471.39,16.31,380.72,16.31,275.54c0-41.53,9.84-80.83,27.29-115.62,9.19-18.48,20.6-35.66,33.76-51.31C124.97,52.18,196.12,16.31,275.54,16.31c86.97,0,164.11,43.05,211.18,108.93,8.48,11.9,16.04,24.57,22.45,37.89,16.42,34.03,25.66,72.19,25.66,112.41,0,100.29-57.24,187.43-140.79,230.53Z"/>
    <g>
        <path class="cls-1" d="M354.85,486.63c-24.68,9.32-51.4,14.42-79.3,14.42-25.06,0-49.18-4.11-71.74-11.68.85-1.13,1.56-2.51,2.08-4.11,12.67-38.4,25.39-76.75,38.11-115.1,10.83-32.68,21.66-65.3,32.49-97.93.28-.71.57-1.42,1.09-2.7.52,1.18.85,1.8,1.09,2.41,10.07,28.47,20.14,56.93,30.26,85.45,12.96,36.55,25.96,73.15,38.92,109.71,2.27,6.38,4.45,12.77,6.81,19.1.05.14.09.28.19.43Z"/>
        <path class="cls-1" d="M501.11,275.54c0,87.25-49.79,163.05-122.48,200.55,2.88-8.56,5.72-17.12,8.61-25.68,14.8-44.17,29.65-88.33,44.45-132.55,12.2-36.32,24.45-72.63,36.65-109,3.45-10.36,6.95-20.71,10.45-31.12,14.28,29.6,22.32,62.8,22.32,97.79Z"/>
        <path class="cls-1" d="M183.19,481.24c-78.4-35.32-133.16-114.2-133.16-205.7,0-36.13,8.56-70.32,23.74-100.58.14.19.24.43.33.61,4.26,8.7,7.09,18.11,10.36,27.24,17.83,50.22,35.66,100.39,53.44,150.61,14.28,40.24,28.51,80.44,42.75,120.68.85,2.41,1.7,4.73,2.55,7.14Z"/>
        <path class="cls-2" d="M459.26,144.79c-.09.28-.24.61-.33.9-5.82,16.55-11.59,33.2-17.26,49.79-4.59,13.38-9.03,26.81-13.62,40.15-5.91,17.26-11.96,34.43-17.92,51.64-5.39,15.65-10.69,31.3-16.03,46.96-5.06,14.66-10.07,29.32-15.13,43.98-.19.57-.57,1.09-.99,1.94-.43-.76-.8-1.14-.95-1.61-3.97-11.4-7.85-22.75-11.87-34.09-4.54-12.91-9.13-25.72-13.71-38.59-3.92-11.07-7.76-22.13-11.77-33.15-4.78-13.19-9.65-26.39-14.56-39.53-5.11-13.76-10.17-27.57-15.56-41.24-5.25-13.29-10.5-26.58-16.31-39.58-4.07-9.03-10.31-16.5-19.1-21.42-5.06-2.84-10.5-4.4-16.22-4.92-15.84-1.32-30.03,4.02-43.79,10.88-12.44,6.19-23.74,14.09-34.57,22.7-.33.28-.61.66-1.28,1.42,3.92-1.04,7.28-2.03,10.69-2.84,12.11-2.84,24.07-2.55,35.51,2.79,8.94,4.16,16.46,10.17,21.23,18.87,2.36,4.3,3.74,9.22,5.39,13.9,3.55,9.88,7,19.81,10.55,29.74.61,1.65.38,2.93-.43,4.49-1.56,3.07-2.74,6.34-3.88,9.6-5.77,16.83-11.44,33.76-17.26,50.65-6.15,17.87-12.39,35.75-18.54,53.67-4.07,11.87-8.09,23.74-12.11,35.56-.28.8-.66,1.56-.99,2.32-.24,0-.43-.05-.66-.09-.66-1.8-1.32-3.55-1.99-5.39-6.81-19.39-13.52-38.78-20.38-58.12-6.81-19.34-13.67-38.63-20.66-57.83-6.43-17.54-12.96-35.09-19.67-52.54-6.34-16.55-12.81-33.05-19.58-49.46-3.92-9.55-9.65-17.97-18.49-23.79-1.23-.8-2.55-1.56-3.88-2.22,41.42-49.08,103.32-80.29,172.41-80.29,75.66,0,142.76,37.45,183.71,94.76Z"/>
    </g>
</svg>