<?xml version="1.0" encoding="UTF-8"?>
<svg id="Layer_1" xmlns="http://www.w3.org/2000/svg" viewBox="0 0 1133.65 262.48">
  <defs>
    <style>
      .cls-1 {
        fill: #1853db;
      }

      .cls-2 {
        fill: #121214;
      }

      .cls-3 {
        fill: #0a54e8;
      }
    </style>
  </defs>
  <g>
    <path class="cls-1" d="M337.56,203.18l-20.09-152.85h28.6l14.85,132.76h3.93l19.22-132.76h49.78l19.21,132.76h3.93l14.85-132.76h28.6l-20.09,152.85h-49.78l-19.65-135.81h-3.93l-19.65,135.81h-49.78Z"/>
    <path class="cls-1" d="M519.22,203.18V50.33h62.89c9.61,0,18.08,1.93,25.44,5.79,7.35,3.86,13.1,9.28,17.25,16.27,4.15,6.99,6.22,15.28,6.22,24.89v3.06c0,9.46-2.15,17.72-6.44,24.78-4.29,7.06-10.12,12.52-17.47,16.37-7.35,3.86-15.69,5.79-25,5.79h-34.06v55.9h-28.82ZM548.05,121.08h31.22c6.84,0,12.37-1.89,16.59-5.68,4.22-3.78,6.33-8.95,6.33-15.5v-2.18c0-6.55-2.11-11.72-6.33-15.5-4.22-3.78-9.76-5.68-16.59-5.68h-31.22v44.54Z"/>
    <path class="cls-2" d="M701.98,206.24c-11.79,0-22.2-2.11-31.22-6.33-9.03-4.22-16.09-10.26-21.18-18.12-5.1-7.86-7.64-17.32-7.64-28.38v-6.12h28.39v6.12c0,9.17,2.84,16.05,8.52,20.63,5.68,4.59,13.39,6.88,23.15,6.88s17.28-1.96,22.16-5.89c4.87-3.93,7.31-8.95,7.31-15.07,0-4.22-1.2-7.64-3.6-10.26-2.4-2.62-5.9-4.77-10.48-6.44-4.59-1.67-10.15-3.24-16.7-4.69l-5.02-1.09c-10.48-2.33-19.47-5.28-26.97-8.84-7.5-3.57-13.25-8.26-17.25-14.08-4-5.82-6-13.39-6-22.71s2.22-17.28,6.66-23.91c4.44-6.62,10.7-11.71,18.78-15.28,8.08-3.57,17.58-5.35,28.49-5.35s20.63,1.86,29.15,5.57c8.52,3.71,15.21,9.25,20.09,16.6,4.87,7.35,7.31,16.56,7.31,27.62v6.55h-28.39v-6.55c0-5.82-1.13-10.52-3.38-14.09-2.26-3.56-5.5-6.18-9.72-7.86-4.22-1.67-9.25-2.51-15.07-2.51-8.73,0-15.18,1.64-19.32,4.91-4.15,3.28-6.22,7.75-6.22,13.43,0,3.79.98,6.99,2.95,9.61,1.97,2.62,4.91,4.8,8.84,6.55,3.93,1.75,8.95,3.27,15.07,4.59l5.02,1.09c10.92,2.33,20.42,5.31,28.49,8.95,8.08,3.64,14.37,8.45,18.89,14.41,4.51,5.97,6.77,13.61,6.77,22.93s-2.37,17.5-7.1,24.56c-4.73,7.06-11.43,12.59-20.09,16.59-8.66,4-18.89,6.01-30.68,6.01Z"/>
    <path class="cls-2" d="M779.93,203.18V50.33h27.51v57.86h3.93c1.16-2.33,2.98-4.66,5.46-6.99,2.47-2.33,5.79-4.26,9.94-5.79,4.15-1.53,9.42-2.29,15.83-2.29,8.44,0,15.83,1.93,22.16,5.79,6.33,3.86,11.24,9.17,14.74,15.94,3.49,6.77,5.24,14.66,5.24,23.69v64.63h-27.51v-62.45c0-8.15-2-14.26-6-18.34-4-4.07-9.72-6.12-17.14-6.12-8.44,0-14.99,2.8-19.65,8.41-4.66,5.61-6.99,13.43-6.99,23.47v55.03h-27.51Z"/>
    <path class="cls-1" d="M926.01,82.21c-4.95,0-9.14-1.6-12.55-4.8-3.42-3.2-5.13-7.42-5.13-12.66s1.71-9.46,5.13-12.67c3.42-3.2,7.6-4.8,12.55-4.8s9.31,1.61,12.66,4.8c3.35,3.2,5.02,7.42,5.02,12.67s-1.68,9.46-5.02,12.66c-3.35,3.2-7.57,4.8-12.66,4.8Z"/>
    <rect class="cls-2" x="912.25" y="94.88" width="27.51" height="108.3"/>
    <path class="cls-2" d="M986.05,203.18v-85.59h-27.51v-22.71h27.51v-20.09c0-7.42,2.22-13.35,6.66-17.8s10.23-6.66,17.36-6.66h28.39v22.71h-18.78c-4.08,0-6.11,2.18-6.11,6.55v15.29h28.39v22.71h-28.39v85.59h-27.51Z"/>
    <path class="cls-2" d="M1100.46,203.18c-7.13,0-12.92-2.22-17.36-6.66-4.44-4.44-6.66-10.37-6.66-17.8v-61.14h-27.07v-22.71h27.07v-33.63h27.51v33.63h29.7v22.71h-29.7v56.33c0,4.37,2.04,6.55,6.11,6.55h20.96v22.71h-30.57Z"/>
  </g>
  <g>
    <path class="cls-2" d="M262.4,126.5c-.05-1.14-.1-2.25-.16-3.39,0-.21-.03-.44-.05-.67,0-.1,0-.21-.03-.31-.1-2.1-.31-4.19-.57-6.27-.03-.13-.03-.28-.05-.41-.03-.34-.08-.65-.13-.98-.13-1.04-.26-2.05-.41-3.08-.34-2.23-.75-4.45-1.19-6.68-.21-1.01-.44-2.05-.67-3.08-.18-.67-.34-1.37-.49-2.07-.03-.05-.05-.1-.05-.16-.03-.16-.08-.31-.13-.47-.08-.34-.16-.67-.26-1.01-.03-.18-.08-.36-.16-.54-.16-.67-.34-1.35-.54-2.02-.18-.65-.36-1.27-.57-1.92-.16-.54-.31-1.09-.49-1.63-.96-3.08-2.05-6.08-3.24-9.06-.31-.83-.65-1.63-.98-2.43-.08-.18-.16-.36-.23-.54-.78-1.81-1.61-3.6-2.46-5.39-.93-1.92-1.89-3.81-2.9-5.67-.03-.03-.03-.05-.03-.08-.21-.34-.39-.67-.6-1.01-3.18-5.77-6.84-11.26-10.85-16.44-3.94-5.13-8.26-9.97-12.95-14.47-.13-.13-.31-.28-.47-.44-3.16-3-6.47-5.88-9.94-8.57-8.21-6.39-17.19-11.83-26.8-16.16-.34-.18-.67-.34-1.01-.47-.6-.26-1.17-.52-1.76-.75-.91-.41-1.81-.78-2.72-1.14-1.06-.41-2.12-.83-3.21-1.22-.98-.36-1.99-.72-3.03-1.06-1.22-.41-2.46-.83-3.7-1.19-.93-.28-1.89-.57-2.85-.83-.05-.03-.1-.03-.16-.05-.08-.03-.16-.05-.23-.05-.83-.23-1.63-.47-2.46-.67-.96-.26-1.92-.49-2.9-.72-.88-.21-1.76-.39-2.64-.57-1.32-.28-2.61-.54-3.91-.78h-.05c-.88-.16-1.79-.31-2.67-.44-.88-.13-1.79-.26-2.69-.36-2.67-.36-5.36-.67-8.08-.83-1.58-.16-3.18-.23-4.79-.28h-.21c-.21-.03-.44-.03-.65-.03l-2.49-.08c-.52-.03-1.06-.03-1.58-.03-.88,0-1.79,0-2.67.05-5.2.08-10.36.49-15.43,1.22-1.71.21-3.42.49-5.1.78-1.09.21-2.15.41-3.21.62-1.06.23-2.12.47-3.18.7-1.22.28-2.43.57-3.62.91-.91.23-1.79.47-2.67.73-1.01.28-1.99.57-3,.88-.05.03-.13.05-.21.05-2.02.65-4.01,1.32-5.98,2.05-1.01.36-1.99.75-3,1.14-8.52,3.39-16.62,7.61-24.18,12.63-4.01,2.64-7.9,5.57-11.57,8.7-.16.13-.31.26-.47.39-.08.05-.13.1-.21.16-.13.1-.28.21-.41.34-.08.05-.13.08-.18.13-.44.36-.88.7-1.32,1.09-5.8,5.1-11.16,10.67-16,16.7-4.97,6.21-9.4,12.89-13.2,19.94-2.25,4.17-4.25,8.44-6.03,12.84-4.43,10.85-7.4,22.42-8.7,34.54-.13,1.11-.23,2.25-.34,3.39-.21,2.25-.34,4.53-.41,6.81-.03.21-.05.44-.03.67-.03.44-.05.91-.05,1.35v.54c-.03.65-.05,1.27-.05,1.92,0,.52,0,1.06.03,1.61-.03.52,0,1.04.03,1.58v.65c.03.67.05,1.32.1,1.99v.18c.03.93.08,1.86.16,2.8.05.93.13,1.86.21,2.8.08.93.18,1.89.28,2.82.1.93.21,1.86.34,2.8s.26,1.86.41,2.8l.47,2.8c0,.05.03.13.05.18.21,1.24.44,2.46.7,3.7,0,.03,0,.08.03.13.75,3.81,1.71,7.53,2.85,11.18.44,1.45.88,2.9,1.37,4.32.05.13.08.23.13.36.03.05.05.13.05.18.26.73.52,1.42.78,2.15.83,2.3,1.73,4.58,2.72,6.84.28.7.6,1.4.91,2.1.44.98.91,1.94,1.35,2.9.47.96.93,1.92,1.42,2.85.96,1.89,1.99,3.75,3.03,5.57,2.12,3.68,4.4,7.22,6.84,10.67.62.85,1.24,1.71,1.86,2.54.62.85,1.27,1.68,1.92,2.51.65.83,1.32,1.66,1.99,2.46.49.6,1.01,1.19,1.5,1.79.39.47.8.96,1.24,1.42.47.52.91,1.04,1.37,1.55.98,1.09,1.97,2.12,3,3.18,1.24,1.27,2.51,2.51,3.78,3.75.7.65,1.42,1.32,2.12,1.97,1.58,1.4,3.16,2.77,4.76,4.12.83.67,1.63,1.32,2.46,1.99,1.66,1.29,3.34,2.54,5.05,3.78,7.51,5.33,15.61,9.89,24.16,13.59,1.24.52,2.46,1.04,3.7,1.53.16.05.28.1.44.18,1.19.47,2.41.91,3.62,1.32,1.89.7,3.81,1.32,5.72,1.92.05.03.1.03.16.05.85.26,1.73.52,2.61.75.91.26,1.84.52,2.77.75,3.13.8,6.32,1.5,9.55,2.1,1.63.28,3.24.54,4.87.78,1.63.23,3.29.41,4.95.6,2.2.21,4.4.39,6.65.49,1.06.05,2.12.1,3.21.13,1.06.03,2.15.05,3.24.05h.28c2.25,0,4.5-.05,6.76-.18,1.11-.05,2.23-.13,3.34-.21.96-.08,1.94-.16,2.93-.26.54-.05,1.11-.1,1.66-.18.75-.08,1.53-.16,2.28-.26,1.04-.13,2.1-.28,3.13-.44,1.06-.16,2.1-.34,3.11-.52,1.35-.23,2.67-.49,3.99-.78,40.99-8.67,74.95-36.48,92.09-73.63.57-1.22,1.11-2.49,1.66-3.73.57-1.4,1.14-2.77,1.68-4.17.21-.6.44-1.19.67-1.81.73-1.99,1.42-4.04,2.07-6.08.31-1.04.62-2.07.91-3.11.31-1.04.6-2.07.85-3.11.54-2.1,1.04-4.22,1.48-6.34.65-3.18,1.19-6.42,1.61-9.68.13-.96.23-1.92.34-2.87.03-.13.03-.26.05-.39,0-.1,0-.18.03-.26.03-.21.05-.41.05-.62.13-1.42.23-2.85.34-4.27.1-1.66.18-3.29.21-4.95.03-1.14.05-2.25.05-3.39,0-1.58-.03-3.16-.1-4.74ZM187.68,241.04c-4.19,2.17-8.54,4.12-13.02,5.77-13.52,5.1-28.14,7.9-43.42,7.9-13.72,0-26.93-2.25-39.28-6.39-3.86-1.29-7.61-2.77-11.29-4.43v-.03C37.75,224.53,7.77,181.34,7.77,131.24c0-19.78,4.69-38.5,13-55.07,4.38-8.8,9.81-16.98,16.08-24.44C59.52,24.86,93.41,7.77,131.24,7.77c41.43,0,78.16,20.51,100.59,51.89,4.04,5.67,7.64,11.7,10.69,18.05,7.82,16.21,12.22,34.38,12.22,53.54,0,47.77-27.26,89.27-67.06,109.8Z"/>
    <g>
      <path class="cls-2" d="M169.01,231.78c-11.76,4.44-24.48,6.87-37.77,6.87-11.94,0-23.42-1.96-34.17-5.56.41-.54.74-1.19.99-1.96,6.04-18.29,12.09-36.56,18.15-54.82,5.16-15.56,10.32-31.1,15.47-46.65.14-.34.27-.68.52-1.28.25.56.41.86.52,1.15,4.8,13.56,9.59,27.12,14.41,40.7,6.17,17.41,12.37,34.84,18.54,52.25,1.08,3.04,2.12,6.08,3.24,9.1.02.07.05.14.09.2Z"/>
      <path class="cls-2" d="M238.68,131.24c0,41.56-23.72,77.66-58.34,95.52,1.37-4.08,2.73-8.15,4.1-12.23,7.05-21.04,14.12-42.07,21.17-63.13,5.81-17.3,11.64-34.6,17.46-51.92,1.64-4.93,3.31-9.87,4.98-14.82,6.8,14.1,10.63,29.91,10.63,46.58Z"/>
      <path class="cls-2" d="M87.25,229.22c-37.34-16.82-63.43-54.39-63.43-97.98,0-17.21,4.08-33.49,11.31-47.91.07.09.11.2.16.29,2.03,4.14,3.38,8.63,4.93,12.97,8.49,23.92,16.98,47.82,25.45,71.74,6.8,19.17,13.58,38.31,20.36,57.48.41,1.15.81,2.25,1.22,3.4Z"/>
      <path class="cls-3" d="M218.75,68.96c-.04.14-.11.29-.16.43-2.77,7.88-5.52,15.81-8.22,23.72-2.18,6.37-4.3,12.77-6.49,19.12-2.82,8.22-5.7,16.4-8.54,24.6-2.57,7.46-5.09,14.91-7.64,22.37-2.41,6.98-4.8,13.96-7.21,20.95-.09.27-.27.52-.47.92-.2-.36-.38-.54-.45-.77-1.89-5.43-3.74-10.83-5.65-16.24-2.16-6.15-4.35-12.25-6.53-18.38-1.87-5.27-3.69-10.54-5.61-15.79-2.27-6.28-4.59-12.57-6.94-18.83-2.43-6.55-4.84-13.13-7.41-19.64-2.5-6.33-5-12.66-7.77-18.85-1.94-4.3-4.91-7.86-9.1-10.2-2.41-1.35-5-2.09-7.73-2.34-7.55-.63-14.3,1.91-20.86,5.18-5.92,2.95-11.31,6.71-16.46,10.81-.16.14-.29.32-.61.68,1.87-.5,3.47-.97,5.09-1.35,5.77-1.35,11.46-1.22,16.91,1.33,4.26,1.98,7.84,4.84,10.11,8.99,1.13,2.05,1.78,4.39,2.57,6.62,1.69,4.71,3.33,9.44,5.02,14.17.29.79.18,1.4-.2,2.14-.74,1.46-1.31,3.02-1.85,4.57-2.75,8.02-5.45,16.08-8.22,24.12-2.93,8.51-5.9,17.03-8.83,25.56-1.94,5.65-3.85,11.31-5.77,16.94-.14.38-.32.74-.47,1.1-.11,0-.2-.02-.32-.05-.32-.86-.63-1.69-.95-2.57-3.24-9.23-6.44-18.47-9.71-27.68-3.24-9.21-6.51-18.4-9.84-27.55-3.06-8.36-6.17-16.71-9.37-25.02-3.02-7.88-6.1-15.74-9.32-23.56-1.87-4.55-4.59-8.56-8.81-11.33-.59-.38-1.22-.74-1.85-1.06,19.73-23.38,49.21-38.24,82.12-38.24,36.04,0,68,17.84,87.5,45.14Z"/>
    </g>
  </g>
</svg>